HIERARCHY
ROOT root
{
	OFFSET	0	13.1	24.9
	CHANNELS 6  Xposition Yposition Zposition Xrotation Yrotation Zrotation
	JOINT spine_1
	{
		OFFSET	0	9.99999	0
		CHANNELS 3  Xrotation Yrotation Zrotation
		JOINT spine_2
		{
			OFFSET	0	112	-10
			CHANNELS 3  Xrotation Yrotation Zrotation
			JOINT spine_3
			{
				OFFSET	0	206.5	19.3
				CHANNELS 3  Xrotation Yrotation Zrotation
				JOINT spine_4
				{
					OFFSET	0	110.4	14.6
					CHANNELS 3  Xrotation Yrotation Zrotation
					JOINT neck_1
					{
						OFFSET	0	71.8	-50.3
						CHANNELS 3  Xrotation Yrotation Zrotation
						JOINT neck_2
						{
							OFFSET	0	86.2	-25.8
							CHANNELS 3  Xrotation Yrotation Zrotation
							JOINT head_ee
							{
								OFFSET	0	179.8	-8.7
								CHANNELS 3  Xrotation Yrotation Zrotation
								End Site
								{
									OFFSET	1	0	0
								}
							}
						}
					}
					JOINT left_clavicle
					{
						OFFSET	-43.2	22.4	-70.8
						CHANNELS 3  Xrotation Yrotation Zrotation
						JOINT left_shoulder
						{
							OFFSET	-93.9	-5.79999	48.7
							CHANNELS 3  Xrotation Yrotation Zrotation
							JOINT left_elbow
							{
								OFFSET	-291.4	-30.8	15.2
								CHANNELS 3  Xrotation Yrotation Zrotation
								JOINT left_lowarm_twist
								{
									OFFSET	-110.7	-3.89999	13.6
									CHANNELS 3  Xrotation Yrotation Zrotation
									JOINT left_hand
									{
										OFFSET	-110.7	-3.89999	13.6
										CHANNELS 3  Xrotation Yrotation Zrotation
										JOINT left_ee
										{
											OFFSET	-80.8	-5.10001	12.1
											CHANNELS 3  Xrotation Yrotation Zrotation
											End Site
											{
												OFFSET	1	0	0
											}
										}
									}
								}
							}
						}
					}
					JOINT right_clavicle
					{
						OFFSET	43.2	22.4	-70.8
						CHANNELS 3  Xrotation Yrotation Zrotation
						JOINT right_shoulder
						{
							OFFSET	93.9	-5.79999	48.7
							CHANNELS 3  Xrotation Yrotation Zrotation
							JOINT right_elbow
							{
								OFFSET	291.4	-30.8	15.2
								CHANNELS 3  Xrotation Yrotation Zrotation
								JOINT right_lowarm_twist
								{
									OFFSET	110.7	-3.89999	13.6
									CHANNELS 3  Xrotation Yrotation Zrotation
									JOINT right_hand
									{
										OFFSET	110.7	-3.89999	13.6
										CHANNELS 3  Xrotation Yrotation Zrotation
										JOINT right_ee
										{
											OFFSET	80.8	-5.10001	12.1
											CHANNELS 3  Xrotation Yrotation Zrotation
											End Site
											{
												OFFSET	1	0	0
											}
										}
									}
								}
							}
						}
					}
				}
			}
		}
	}
	JOINT left_hip
	{
		OFFSET	-82.8	-127.5	0.300001
		CHANNELS 3  Xrotation Yrotation Zrotation
		JOINT left_knee
		{
			OFFSET	-28.2	-396.7	2.2
			CHANNELS 3  Xrotation Yrotation Zrotation
			JOINT left_ankle
			{
				OFFSET	-11.7	-411.3	35.4
				CHANNELS 3  Xrotation Yrotation Zrotation
				JOINT left_toes
				{
					OFFSET	0	-60	-88.6
					CHANNELS 3  Xrotation Yrotation Zrotation
					JOINT left_foot_ee
					{
						OFFSET	-22.5	-16.5	-42.2
						CHANNELS 3  Xrotation Yrotation Zrotation
						End Site
						{
							OFFSET	1	0	0
						}
					}
				}
			}
		}
	}
	JOINT right_hip
	{
		OFFSET	82.8	-127.5	0.300001
		CHANNELS 3  Xrotation Yrotation Zrotation
		JOINT right_knee
		{
			OFFSET	28.2	-396.7	2.2
			CHANNELS 3  Xrotation Yrotation Zrotation
			JOINT right_ankle
			{
				OFFSET	11.7	-411.3	35.4
				CHANNELS 3  Xrotation Yrotation Zrotation
				JOINT right_toes
				{
					OFFSET	0	-60	-88.6
					CHANNELS 3  Xrotation Yrotation Zrotation
					JOINT right_foot_ee
					{
						OFFSET	22.5	-16.5	-42.2
						CHANNELS 3  Xrotation Yrotation Zrotation
						End Site
						{
							OFFSET	1	0	0
						}
					}
				}
			}
		}
	}
}
MOTION
Frames: 5
Frame Time: 0.02
1041.4 574.639 -1682.42 8.05343262303 15.9906245343 9.2947342243 -2.5805 -0.737215 -4.22065 -2.57071 -0.4674 -4.25891 -2.52363 0.626102 -4.23853 -2.54869 -0.0505138 -4.28414 0.241935 20.3236 7.77954 0.986789 29.968 10.2552 -0.0 0.0 -0.0 7.49213 20.2456 13.4887 -22.3291 8.9957 64.993 0.652487 -17.9121 0.102832 11.4403 0.260495 -1.43576 3.22633 20.0625 28.6139 -0.0 0.0 -0.0 12.6065 18.7932 -25.4122 -3.20637 19.7804 -48.8215 1.05397 27.5687 -0.258583 34.809 0.107144 4.37769 2.83288 20.1387 -10.2408 0.0 0.0 0.0 23.772 4.20584 -20.761 -3.50296 0.128295 0.522204 -19.3737 20.5591 2.97527 34.8719 -0.0 -0.0 -0.0 0.0 -0.0 -14.7083 9.92244 -10.5936 -20.4882 -0.289515 -3.11402 24.3616 18.0885 3.58565 22.9958 -0.0 -0.0 0.0 0.0 0.0 
1041.4 574.639 -1682.42 8.07414808687 16.4925428863 9.22066861046 -2.5805 -0.737215 -4.22065 -2.57071 -0.4674 -4.25891 -2.52363 0.626102 -4.23853 -2.54869 -0.0505138 -4.28414 0.241935 20.3236 7.77954 0.986789 29.968 10.2552 -0.0 0.0 -0.0 7.49213 20.2456 13.4887 -22.3291 8.9957 64.993 0.652487 -17.9121 0.102832 11.4403 0.260495 -1.43576 3.22633 20.0625 28.6139 -0.0 0.0 -0.0 12.6065 18.7932 -25.4122 -3.20637 19.7804 -48.8215 1.05397 27.5687 -0.258583 34.809 0.107144 4.37769 2.83288 20.1387 -10.2408 0.0 0.0 0.0 23.772 4.20584 -20.761 -3.50296 0.128295 0.522204 -19.3737 20.5591 2.97527 34.8719 -0.0 -0.0 -0.0 0.0 -0.0 -14.7083 9.92244 -10.5936 -20.4882 -0.289515 -3.11402 24.3616 18.0885 3.58565 22.9958 -0.0 -0.0 0.0 0.0 0.0 
1041.4 574.639 -1682.42 8.10493174898 17.2076239202 9.11447199097 -2.5805 -0.737215 -4.22065 -2.57071 -0.4674 -4.25891 -2.52363 0.626102 -4.23853 -2.54869 -0.0505138 -4.28414 0.241935 20.3236 7.77954 0.986789 29.968 10.2552 -0.0 0.0 -0.0 7.49213 20.2456 13.4887 -22.3291 8.9957 64.993 0.652487 -17.9121 0.102832 11.4403 0.260495 -1.43576 3.22633 20.0625 28.6139 -0.0 0.0 -0.0 12.6065 18.7932 -25.4122 -3.20637 19.7804 -48.8215 1.05397 27.5687 -0.258583 34.809 0.107144 4.37769 2.83288 20.1387 -10.2408 0.0 0.0 0.0 23.772 4.20584 -20.761 -3.50296 0.128295 0.522204 -19.3737 20.5591 2.97527 34.8719 -0.0 -0.0 -0.0 0.0 -0.0 -14.7083 9.92244 -10.5936 -20.4882 -0.289515 -3.11402 24.3616 18.0885 3.58565 22.9958 -0.0 -0.0 0.0 0.0 0.0 
1026.25644363 575.795 -1696.08711383 8.79370364148 16.5554554353 9.41859234178 -2.6937 -0.617038 -4.2906 -2.68353 -0.343026 -4.32109 -2.64506 0.7716 -4.26556 -2.67043 0.0889109 -4.33375 0.841527 20.4812 7.49096 1.6416 30.282 9.84995 -0.0 0.0 -0.0 7.75703 19.2911 13.9949 -21.2169 8.71067 65.1835 0.64062 -17.6067 0.0992124 11.5471 0.261568 -1.44936 3.24508 20.4972 28.8456 -0.0 0.0 -0.0 12.5814 18.6101 -25.3651 -3.50245 19.476 -49.0213 0.879821 23.5491 -0.1834 34.2933 0.0861742 4.31519 2.7329 19.025 -10.1139 0.0 0.0 0.0 22.1274 4.70353 -21.3697 -3.82842 0.138587 0.571092 -22.2065 18.1519 3.38627 33.9793 -0.0 -0.0 -0.0 0.0 -0.0 -14.8621 10.7831 -10.373 -21.8873 -0.268442 -3.32767 23.5162 18.3669 3.48633 23.0532 -0.0 -0.0 0.0 0.0 0.0 
1026.11256588 575.795 -1695.92598601 8.82185108528 17.1550412209 9.32151840125 -2.6937 -0.617038 -4.2906 -2.68353 -0.343026 -4.32109 -2.64506 0.7716 -4.26556 -2.67043 0.0889109 -4.33375 0.841527 20.4812 7.49096 1.6416 30.282 9.84995 -0.0 0.0 -0.0 7.75703 19.2911 13.9949 -21.2169 8.71067 65.1835 0.64062 -17.6067 0.0992124 11.5471 0.261568 -1.44936 3.24508 20.4972 28.8456 -0.0 0.0 -0.0 12.5814 18.6101 -25.3651 -3.50245 19.476 -49.0213 0.879821 23.5491 -0.1834 34.2933 0.0861742 4.31519 2.7329 19.025 -10.1139 0.0 0.0 0.0 22.1274 4.70353 -21.3697 -3.82842 0.138587 0.571092 -22.2065 18.1519 3.38627 33.9793 -0.0 -0.0 -0.0 0.0 -0.0 -14.8621 10.7831 -10.373 -21.8873 -0.268442 -3.32767 23.5162 18.3669 3.48633 23.0532 -0.0 -0.0 0.0 0.0 0.0 
